<svg width="74" height="18" viewBox="0 0 74 18" fill="none" xmlns="http://www.w3.org/2000/svg">
<path d="M14.834 14.3222C14.0613 15.2548 13.1496 15.9662 12.1004 16.4535C11.0512 16.9422 9.87798 17.1858 8.57919 17.1858C7.41192 17.1858 6.32985 16.9751 5.33147 16.5521C4.33308 16.1291 3.46921 15.5537 2.73986 14.8244C2.0105 14.095 1.43509 13.2311 1.01212 12.2328C0.589153 11.2344 0.378418 10.1583 0.378418 9.00746C0.378418 7.85663 0.589153 6.78053 1.01212 5.78215C1.43509 4.78376 2.0105 3.9199 2.73986 3.19054C3.46921 2.46118 4.33308 1.88577 5.33147 1.4628C6.32985 1.03984 7.41342 0.829102 8.57919 0.829102C9.83314 0.829102 10.9376 1.04731 11.8912 1.48522C12.8462 1.92313 13.6951 2.55684 14.4394 3.38783L12.362 5.39953C11.8957 4.85999 11.3591 4.42955 10.7538 4.10971C10.1485 3.78837 9.4311 3.62845 8.60012 3.62845C7.87076 3.62845 7.18624 3.75549 6.54507 4.01106C5.90389 4.26664 5.34491 4.62684 4.87113 5.09314C4.39735 5.55945 4.02221 6.12441 3.74571 6.788C3.46921 7.45159 3.33022 8.19141 3.33022 9.00746C3.33022 9.8235 3.46921 10.5633 3.74571 11.2269C4.02221 11.8905 4.39735 12.4555 4.87113 12.9218C5.34491 13.3881 5.9024 13.7498 6.54507 14.0038C7.18624 14.2594 7.87225 14.3865 8.60012 14.3865C9.47445 14.3865 10.2516 14.2071 10.9287 13.8499C11.6057 13.4927 12.208 12.986 12.7326 12.3299L14.834 14.3222ZM23.4936 15.4372H23.3188C22.984 15.9767 22.5311 16.4027 21.9632 16.7165C21.3937 17.0304 20.7451 17.1873 20.0172 17.1873C18.6616 17.1873 17.6513 16.7718 16.9892 15.9408C16.3256 15.1098 15.9938 14.0023 15.9938 12.6169V6.12142H18.8589V12.2671C18.8589 13.0398 19.0308 13.6123 19.3731 13.9829C19.7153 14.3551 20.2145 14.5404 20.8706 14.5404C21.2652 14.5404 21.6105 14.4567 21.9094 14.2893C22.2083 14.1219 22.4639 13.8962 22.6746 13.6123C22.8853 13.3283 23.0467 12.992 23.1559 12.6064C23.265 12.2193 23.3203 11.8083 23.3203 11.3704V6.12142H26.1854V16.8361H23.4951V15.4372H23.4936ZM57.5432 14.104C57.0769 15.0082 56.4238 15.748 55.5853 16.3234C54.7468 16.8989 53.7006 17.1873 52.4482 17.1873C51.6172 17.1873 50.8549 17.0453 50.1629 16.7613C49.471 16.4774 48.8731 16.0798 48.3694 15.5702C47.8673 15.0605 47.4727 14.4582 47.1887 13.7662C46.9048 13.0742 46.7628 12.312 46.7628 11.481C46.7628 10.65 46.9048 9.88478 47.1887 9.18531C47.4727 8.48585 47.8673 7.88353 48.3694 7.38135C48.8731 6.87768 49.471 6.4846 50.1629 6.20063C50.8549 5.91666 51.6172 5.77467 52.4482 5.77467C53.6872 5.77467 54.7289 6.05864 55.5748 6.62808C56.4208 7.19752 57.0395 7.93285 57.4341 8.83707L54.8096 9.92961C54.5615 9.43341 54.2447 9.05827 53.8576 8.80419C53.4705 8.54862 52.9862 8.42158 52.4033 8.42158C52.0237 8.42158 51.668 8.49481 51.3317 8.63979C50.9969 8.78476 50.701 8.98952 50.4454 9.25107C50.1898 9.51412 49.9896 9.83396 49.8431 10.2136C49.6981 10.5932 49.6249 11.0162 49.6249 11.4825C49.6249 11.9488 49.6981 12.3718 49.8431 12.7514C49.9896 13.131 50.1898 13.4508 50.4454 13.7139C50.701 13.9769 50.9954 14.1802 51.3317 14.3267C51.668 14.4731 52.0237 14.5449 52.4033 14.5449C53.0012 14.5449 53.5078 14.4104 53.9233 14.1399C54.3388 13.8708 54.6706 13.4807 54.9187 12.9696L57.5432 14.104ZM68.8916 14.2564C68.3969 15.1308 67.7288 15.8392 66.8903 16.3772C66.0519 16.9168 65.0281 17.1858 63.8189 17.1858C63.0029 17.1858 62.2481 17.0438 61.5562 16.7599C60.8642 16.4759 60.2618 16.0783 59.7522 15.5687C59.241 15.059 58.845 14.4567 58.561 13.7647C58.277 13.0727 58.1351 12.3105 58.1351 11.4795C58.1351 10.7068 58.274 9.97445 58.5505 9.28246C58.827 8.59047 59.2141 7.98516 59.7088 7.46803C60.2035 6.95091 60.7909 6.5384 61.4695 6.23202C62.1465 5.92563 62.8938 5.77318 63.7113 5.77318C64.5707 5.77318 65.3359 5.91516 66.007 6.19913C66.6781 6.48311 67.24 6.87767 67.6914 7.37985C68.1428 7.88353 68.4865 8.47688 68.7197 9.1614C68.9528 9.84592 69.0694 10.5902 69.0694 11.3913V11.6544C69.0545 11.741 69.047 11.8218 69.047 11.895C69.0321 11.9682 69.0261 12.0474 69.0261 12.1356H60.9568C61.0151 12.5735 61.1362 12.9487 61.3185 13.2625C61.5008 13.5764 61.7265 13.8379 61.9956 14.0502C62.2661 14.2609 62.5605 14.4149 62.8818 14.509C63.2032 14.6032 63.5305 14.651 63.8668 14.651C64.5229 14.651 65.0654 14.5015 65.4959 14.2026C65.9263 13.9037 66.2656 13.5286 66.5122 13.0772L68.8916 14.2564ZM42.8246 15.7002H42.6497C42.3149 16.1082 41.9099 16.4579 41.4361 16.7494C40.9623 17.0408 40.354 17.1873 39.6097 17.1873C39.0552 17.1873 38.5336 17.0961 38.0464 16.9138C37.5576 16.7315 37.1317 16.4804 36.767 16.159C36.4023 15.8377 36.1184 15.4521 35.9136 15.0007C35.7088 14.5479 35.6072 14.0532 35.6072 13.5136C35.6072 12.9591 35.7163 12.4599 35.9345 12.0161C36.1527 11.5707 36.4591 11.188 36.8537 10.8682C37.2468 10.5469 37.7101 10.3033 38.2422 10.1359C38.7742 9.96847 39.3541 9.88478 39.9804 9.88478C40.6798 9.88478 41.2567 9.93858 41.7081 10.0492C42.1595 10.1583 42.5316 10.2719 42.8231 10.3884V10.0596C42.8231 9.4917 42.5974 9.0209 42.1445 8.64875C41.6932 8.2766 41.1312 8.09128 40.4616 8.09128C39.4707 8.09128 38.6322 8.50677 37.9462 9.33776L35.8688 7.91641C37.0061 6.48759 38.5575 5.77318 40.5259 5.77318C42.1879 5.77318 43.4568 6.16327 44.3311 6.94344C45.2054 7.72361 45.6433 8.87892 45.6433 10.4094V16.8391H42.8231V15.7002H42.8246ZM70.4669 1.17883H73.332V16.8361H70.4669V1.17883ZM28.1956 6.12142H30.8858V7.60852H31.0607C31.1922 7.34548 31.3671 7.10485 31.5853 6.88664C31.8035 6.66843 32.0486 6.47713 32.3176 6.31571C32.5882 6.1528 32.8796 6.02128 33.192 5.92114C33.5058 5.821 33.8152 5.77168 34.1216 5.77168C34.5012 5.77168 34.8256 5.81204 35.0946 5.89424C35.3651 5.97495 35.5938 6.07957 35.7836 6.2096L35.0184 8.76832C34.8435 8.68164 34.6507 8.61139 34.4385 8.56057C34.2277 8.50976 33.9677 8.48435 33.6628 8.48435C33.2697 8.48435 32.9125 8.56057 32.5912 8.71451C32.2698 8.86846 31.9978 9.08368 31.7706 9.36317C31.5449 9.64116 31.3701 9.96698 31.246 10.3421C31.122 10.7158 31.0607 11.1223 31.0607 11.5617V16.8376H28.1956V6.12142ZM42.8246 12.4853C42.4898 12.3254 42.143 12.1969 41.7858 12.1027C41.4286 12.0086 41.0385 11.9607 40.6156 11.9607C39.931 11.9607 39.402 12.1102 39.0298 12.4091C38.6577 12.708 38.4723 13.0772 38.4723 13.5136C38.4723 13.9515 38.6502 14.3013 39.0089 14.5628C39.3661 14.8259 39.7786 14.9559 40.2449 14.9559C40.6245 14.9559 40.9743 14.8871 41.2941 14.7481C41.6154 14.6092 41.8874 14.4268 42.1146 14.2011C42.3403 13.9754 42.5152 13.7124 42.6392 13.4135C42.7633 13.1161 42.8246 12.8052 42.8246 12.4853ZM66.2895 10.1015C66.2745 9.91167 66.2133 9.70094 66.1042 9.46629C65.9951 9.23313 65.8351 9.01493 65.6229 8.81017C65.4122 8.60541 65.1491 8.43802 64.8353 8.3065C64.5214 8.17497 64.1463 8.10921 63.7098 8.10921C63.0971 8.10921 62.5575 8.28408 62.0912 8.63381C61.6249 8.98354 61.2961 9.47227 61.1063 10.0985H66.2895V10.1015Z" fill="#1A1AFF"/>
</svg>
